<svg width="80" height="80" viewBox="0 0 80 80" fill="none" xmlns="http://www.w3.org/2000/svg">
<path d="M65.5347 55.9831C66.1926 55.9831 66.7566 55.9831 67.3206 56.0771C68.0726 56.0771 68.7306 55.5131 68.7306 54.7611V16.41C68.7306 15.658 68.1666 15.094 67.4146 15.094C66.7566 15.094 66.0986 15 65.4407 15C56.9808 15 49.273 17.9139 43.0691 22.7078C42.3172 23.3658 41.7532 24.3058 41.7532 25.2458V62.657C41.7532 63.4089 42.6932 63.8789 43.2571 63.4089C49.555 58.709 57.2628 55.9831 65.5347 55.9831Z" fill="#ED2B2B"/>
<g opacity="0.2">
<path d="M70.1406 25.2458V56.3592C70.1406 57.0171 69.5766 57.5811 68.9186 57.4871H68.6366C67.4146 57.3931 66.4746 57.2991 65.5347 57.2991C58.8608 57.2991 52.2809 59.2731 46.7351 62.845C46.4531 63.033 46.1711 63.409 46.1711 63.785C46.1711 64.631 47.0171 65.195 47.769 64.819C52.093 62.845 56.8868 61.623 62.0567 61.623C66.0046 61.623 69.6706 62.281 73.2425 63.503C73.9945 63.785 74.7465 63.221 74.7465 62.469V25.8098C74.7465 25.3398 74.4645 24.8698 73.9005 24.6818C73.1485 24.4939 72.3025 24.2119 71.5505 24.1179C70.8925 24.0239 70.1406 24.5879 70.1406 25.2458Z" fill="#ED2B2B"/>
</g>
<path d="M14.2118 55.9831C13.5538 55.9831 12.9898 55.9831 12.4258 56.0771C11.6739 56.0771 11.0159 55.5132 11.0159 54.7612V16.41C11.0159 15.658 11.5799 15.094 12.3318 15.094C12.9898 15.094 13.6478 15 14.3058 15C22.7656 15 30.4734 17.914 36.6773 22.7079C37.4293 23.3658 37.9933 24.3058 37.9933 25.2458V62.657C37.9933 63.409 37.0533 63.879 36.4893 63.409C30.1915 58.7091 22.4836 55.9831 14.2118 55.9831Z" fill="#ED2B2B"/>
<g opacity="0.2">
<path d="M9.6059 25.2458V56.3592C9.6059 57.0171 10.1699 57.5811 10.8279 57.4871H11.1099C12.3318 57.3931 13.2718 57.2991 14.2118 57.2991C20.8857 57.2991 27.4655 59.2731 33.0114 62.845C33.2934 63.033 33.5754 63.409 33.5754 63.785C33.5754 64.631 32.7294 65.195 31.9774 64.819C27.6535 62.845 22.8596 61.623 17.6897 61.623C13.7418 61.623 10.0759 62.281 6.50397 63.503C5.75198 63.785 5 63.221 5 62.469V25.8098C5 25.3398 5.28199 24.8698 5.84598 24.6818C6.59797 24.4939 7.44395 24.2119 8.19593 24.1179C8.85392 24.0239 9.6059 24.5879 9.6059 25.2458Z" fill="#ED2B2B"/>
</g>
</svg>
