<svg width="80" height="80" viewBox="0 0 80 80" fill="none" xmlns="http://www.w3.org/2000/svg">
<path opacity="0.2" d="M42.8132 34.4995C49.3024 34.4995 54.563 29.239 54.563 22.7497C54.563 16.2605 49.3024 11 42.8132 11C36.324 11 31.0635 16.2605 31.0635 22.7497C31.0635 29.239 36.324 34.4995 42.8132 34.4995Z" fill="#ED2B2B"/>
<path d="M42.8133 27.4497C45.409 27.4497 47.5132 25.3454 47.5132 22.7498C47.5132 20.1541 45.409 18.0499 42.8133 18.0499C40.2176 18.0499 38.1134 20.1541 38.1134 22.7498C38.1134 25.3454 40.2176 27.4497 42.8133 27.4497Z" fill="white"/>
<path opacity="0.2" d="M19.4077 34.4995C25.8969 34.4995 31.1574 29.239 31.1574 22.7497C31.1574 16.2605 25.8969 11 19.4077 11C12.9185 11 7.65796 16.2605 7.65796 22.7497C7.65796 29.239 12.9185 34.4995 19.4077 34.4995Z" fill="#ED2B2B"/>
<path d="M19.4077 27.4497C22.0033 27.4497 24.1076 25.3454 24.1076 22.7498C24.1076 20.1541 22.0033 18.0499 19.4077 18.0499C16.812 18.0499 14.7078 20.1541 14.7078 22.7498C14.7078 25.3454 16.812 27.4497 19.4077 27.4497Z" fill="white"/>
<path d="M68.4747 39.5754L56.631 46.4372V59.1269L68.4747 65.9888C70.5427 67.2108 73.0806 65.7068 73.0806 63.3568V42.2073C73.0806 39.8574 70.5427 38.3534 68.4747 39.5754Z" fill="#ED2B2B"/>
<path d="M47.5131 36.1914H14.1438C10.1959 36.1914 7 39.3874 7 43.3353V62.3229C7 66.2708 10.1959 69.4667 14.1438 69.4667H47.5131C51.461 69.4667 54.657 66.2708 54.657 62.3229V43.2413C54.657 39.2934 51.461 36.1914 47.5131 36.1914ZM23.4496 45.5912H14.5198C13.2979 45.5912 12.2639 44.5573 12.2639 43.3353C12.2639 42.1133 13.2979 41.0793 14.5198 41.0793H23.4496C24.6716 41.0793 25.7056 42.1133 25.7056 43.3353C25.7056 44.5573 24.6716 45.5912 23.4496 45.5912Z" fill="#ED2B2B"/>
<path d="M23.4497 41.1733H14.5199C13.2979 41.1733 12.2639 42.2073 12.2639 43.4293C12.2639 44.6512 13.2979 45.6852 14.5199 45.6852H23.4497C24.6716 45.6852 25.7056 44.6512 25.7056 43.4293C25.7056 42.1133 24.6716 41.1733 23.4497 41.1733Z" fill="white"/>
</svg>
