<svg width="256" height="249" xmlns="http://www.w3.org/2000/svg" preserveAspectRatio="xMidYMid">

 <g>
  <title>background</title>
  <rect fill="none" id="canvas_background" height="402" width="582" y="-1" x="-1"/>
 </g>
 <g>
  <title>Layer 1</title>
  <path id="svg_2" fill="#767676" d="m82.085159,244.934189c-5.945801,0 -11.561287,-2.642578 -15.360001,-7.432251l-57.806449,-71.845169c-3.79871,-4.789673 -5.28516,-10.900635 -3.79871,-16.846451l20.64516,-89.682579c1.321291,-5.945808 5.28516,-10.735477 10.735481,-13.378059l83.571617,-39.969029c2.642586,-1.3213 5.615479,-1.98194 8.588387,-1.98194c2.9729,0 5.945801,0.66064 8.588394,1.98194l83.571609,39.803861c5.450317,2.64259 9.414185,7.432259 10.735474,13.378071l20.645172,89.682575c1.321289,5.945816 0,12.056778 -3.798706,16.846451l-57.806458,71.845169c-3.798706,4.624512 -9.4142,7.432251 -15.360001,7.432251l-93.15097,0.165161l0,0z"/>
  <path id="svg_3" fill="#FFFFFF" d="m128.495483,7.92774c2.312256,0 4.624512,0.49549 6.771606,1.48645l83.571625,39.803869c4.294189,2.147099 7.597412,6.11097 8.588379,10.735489l20.645172,89.682575c1.156128,4.789688 0,9.744522 -3.138077,13.543228l-57.806442,71.845169c-2.9729,3.798706 -7.597427,5.945801 -12.3871,5.945801l-92.655487,0c-4.789673,0 -9.414192,-2.147095 -12.387093,-5.945801l-57.806457,-71.845169c-2.9729,-3.798706 -4.12903,-8.75354 -3.138061,-13.543228l20.645161,-89.682575c1.15613,-4.789677 4.294191,-8.753548 8.588388,-10.735489l83.571609,-39.969029c2.147095,-0.8258 4.624519,-1.32129 6.936775,-1.32129l0,0zm0,-7.76258l0,0c-3.468384,0 -6.936775,0.82581 -10.23999,2.31226l-83.571625,39.969029c-6.606449,3.138062 -11.230968,8.918709 -12.882578,16.020649l-20.645161,89.682575c-1.65161,7.101944 0,14.369034 4.62452,20.149689l57.806451,71.845154c4.459362,5.615479 11.230961,8.753555 18.332897,8.753555l92.655487,0c7.101929,0 13.87355,-3.138077 18.332901,-8.753555l57.806458,-71.845154c4.624512,-5.615494 6.276123,-13.047745 4.624512,-20.149689l-20.645157,-89.682575c-1.651611,-7.10194 -6.276138,-12.882587 -12.882584,-16.020649l-83.241287,-39.969029c-3.138077,-1.48645 -6.606461,-2.31226 -10.074844,-2.31226l0,0l0,0z"/>
  <path id="svg_4" fill="#FFFFFF" d="m212.232254,142.534195l0,0l0,0c-0.165161,0 -0.165161,0 0,0l-0.165161,0c-0.165161,0 -0.330322,0 -0.330322,-0.165161c-0.330322,0 -0.660645,-0.165161 -0.990967,-0.165161c-1.156128,-0.165161 -2.147095,-0.330322 -3.138062,-0.330322c-0.495483,0 -0.990967,0 -1.651611,-0.165161l-0.165161,0c-3.468384,-0.330322 -6.276138,-0.660645 -8.918716,-1.48645c-1.156128,-0.495483 -1.48645,-1.156128 -1.816772,-1.816772c0,-0.165161 -0.165161,-0.165161 -0.165161,-0.330322l0,0l-2.147095,-0.660645c0.990967,-7.597427 0.660645,-15.525169 -1.156128,-23.28775c-1.816772,-7.762581 -4.954834,-15.029678 -9.249039,-21.636116l1.651611,-1.486465l0,-0.330315c0,-0.825813 0.165176,-1.651627 0.825821,-2.477425c1.981934,-1.816772 4.459351,-3.303223 7.432251,-5.119995l0,0c0.495483,-0.33033 0.990967,-0.495491 1.48645,-0.825813c0.990967,-0.495483 1.816772,-0.990967 2.807739,-1.651611c0.165161,-0.165161 0.495483,-0.330322 0.825806,-0.660652c0.165161,-0.165154 0.330322,-0.165154 0.330322,-0.330315l0,0c2.312271,-1.981934 2.807755,-5.285164 1.156128,-7.432259c-0.825806,-1.15612 -2.312256,-1.816772 -3.798706,-1.816772c-1.321289,0 -2.477417,0.495476 -3.633545,1.321289l0,0l0,0c-0.165161,0.165161 -0.165161,0.165161 -0.330322,0.330322c-0.330322,0.165161 -0.495483,0.495491 -0.825806,0.660645c-0.825806,0.825806 -1.48645,1.48645 -2.147095,2.312256c-0.330322,0.33033 -0.660645,0.825806 -1.156128,1.156136l0,0c-2.312256,2.477425 -4.459366,4.459351 -6.606461,5.945801c-0.495483,0.330322 -0.990967,0.495483 -1.48645,0.495483c-0.330322,0 -0.660645,0 -0.990967,-0.165161l-0.330322,0l0,0l-1.981934,1.321289c-2.147095,-2.312263 -4.459351,-4.294189 -6.771606,-6.276123c-9.909683,-7.762581 -21.966461,-12.552261 -34.518723,-13.708389l-0.165161,-2.147099c-0.165161,-0.165161 -0.165161,-0.165161 -0.330322,-0.330318c-0.495483,-0.495491 -1.156128,-0.990971 -1.321289,-2.147102c-0.165161,-2.642578 0.165161,-5.615479 0.495483,-8.918709l0,-0.165161c0,-0.49548 0.165161,-1.156128 0.330322,-1.651608c0.165161,-0.990971 0.330322,-1.981941 0.495483,-3.138073l0,-0.990959l0,-0.495491l0,0l0,0c0,-2.972897 -2.312256,-5.450317 -5.119995,-5.450317c-1.321281,0 -2.642578,0.660648 -3.633545,1.651608c-0.990967,0.990971 -1.486458,2.31226 -1.486458,3.79871l0,0l0,0l0,0.330322l0,0.990971c0,1.156128 0.165161,2.147099 0.495491,3.138069c0.165154,0.49548 0.165154,0.990959 0.33033,1.651611l0,0.165157c0.330315,3.30323 0.825798,6.276131 0.495476,8.918713c-0.165161,1.156128 -0.825806,1.651608 -1.321297,2.147099c-0.165161,0.165161 -0.165161,0.165161 -0.330322,0.330318l0,0l-0.165161,2.147102c-2.9729,0.330318 -5.945801,0.660641 -8.918709,1.321285c-12.717422,2.807747 -23.948387,9.249031 -32.701942,18.498062l-1.651604,-1.156128l-0.330322,0c-0.330322,0 -0.660645,0.165161 -0.990974,0.165161c-0.495476,0 -0.990959,-0.165161 -1.48645,-0.495483c-2.147095,-1.48645 -4.294189,-3.633545 -6.606445,-6.11097l0,0c-0.330322,-0.330322 -0.660645,-0.825806 -1.156128,-1.156128c-0.660645,-0.825798 -1.321297,-1.48645 -2.147102,-2.312263c-0.165161,-0.165154 -0.495483,-0.330315 -0.825798,-0.660637c-0.165176,-0.165161 -0.33033,-0.165161 -0.33033,-0.330322l0,0c-0.990967,-0.825806 -2.312252,-1.321289 -3.633545,-1.321289c-1.486458,0 -2.972908,0.660645 -3.79871,1.816772c-1.651619,2.147102 -1.156128,5.450325 1.156132,7.432259l0,0l0,0c0.165161,0 0.165161,0.165161 0.330318,0.165161c0.330322,0.165161 0.495483,0.495476 0.825802,0.660652c0.990971,0.660637 1.81678,1.15612 2.807751,1.651604c0.49548,0.165161 0.990955,0.495483 1.486446,0.825806l0,0c2.972916,1.81678 5.450325,3.30323 7.432266,5.12001c0.825798,0.825798 0.825798,1.651604 0.825798,2.477409l0,0.330315l0,0l1.651611,1.486465c-0.330322,0.495491 -0.660645,0.825806 -0.825806,1.321289c-8.258064,13.047737 -11.396126,28.407738 -9.249031,43.602585l-2.147095,0.660645c0,0.165161 -0.165161,0.165161 -0.165161,0.330322c-0.330322,0.660645 -0.825809,1.321289 -1.81678,1.816772c-2.477409,0.825806 -5.450321,1.156128 -8.918701,1.48645l-0.165169,0c-0.49548,0 -1.15612,0 -1.651611,0.165161c-0.990971,0 -1.98193,0.165161 -3.138058,0.330322c-0.330322,0 -0.660652,0.165161 -0.990971,0.165161c-0.165161,0 -0.33033,0 -0.495491,0.165161l0,0l0,0c-2.9729,0.660645 -4.789669,3.468384 -4.294189,6.110962c0.49548,2.312256 2.642578,3.798706 5.28516,3.798706c0.495491,0 0.825809,0 1.321289,-0.165146l0,0l0,0c0.165161,0 0.33033,0 0.33033,-0.165161c0.330322,0 0.660641,-0.165176 0.990959,-0.165176c1.156132,-0.330322 1.981941,-0.660645 2.972912,-1.156128c0.49548,-0.165161 0.990959,-0.495483 1.48645,-0.660645l0.165161,0c3.138058,-1.156128 5.945808,-2.147095 8.588387,-2.477417l0.330322,0c0.990971,0 1.651611,0.495483 2.147102,0.825806c0.165154,0 0.165154,0.165161 0.330315,0.165161l0,0l2.312256,-0.330322c3.963875,12.221939 11.561295,23.122589 21.636124,31.050323c2.312263,1.816772 4.624527,3.303223 7.101944,4.789673l-0.990974,2.14711c0,0.165161 0.165176,0.165161 0.165176,0.330322c0.330315,0.660645 0.660637,1.48645 0.330315,2.642578c-0.990967,2.477417 -2.477417,4.954834 -4.294197,7.762573l0,0.165161c-0.330322,0.495483 -0.660637,0.825806 -0.990967,1.321289c-0.660645,0.825806 -1.15612,1.651611 -1.816772,2.642593c-0.165161,0.165161 -0.330322,0.495483 -0.495483,0.825806c0,0.165161 -0.165161,0.330322 -0.165161,0.330322l0,0l0,0c-1.321289,2.807739 -0.33033,5.945801 2.147095,7.101929c0.660652,0.330322 1.321289,0.495483 1.981941,0.495483c1.981941,0 3.963867,-1.321289 4.954834,-3.138062l0,0l0,0c0,-0.165161 0.165161,-0.330322 0.165161,-0.330322c0.165161,-0.330322 0.330322,-0.660645 0.495483,-0.825806c0.495476,-1.156128 0.660652,-1.981934 0.990967,-2.9729c0.165161,-0.495483 0.330322,-0.990967 0.495483,-1.48645l0,0c1.156136,-3.303238 1.981941,-5.945816 3.468391,-8.258072c0.660645,-0.990967 1.48645,-1.156128 2.147095,-1.48645c0.165161,0 0.165161,0 0.330322,-0.165161l0,0l1.156128,-2.147095c7.267105,2.807739 15.194839,4.294189 23.122581,4.294189c4.789673,0 9.744522,-0.495483 14.369034,-1.651611c2.9729,-0.660645 5.78064,-1.48645 8.588394,-2.477417l0.990967,1.816772c0.165161,0 0.165161,0 0.330322,0.165161c0.825806,0.165161 1.48645,0.495483 2.147095,1.48645c1.321289,2.312256 2.312256,5.119995 3.468384,8.258072l0,0.165161c0.165161,0.495483 0.330322,0.990967 0.495483,1.48645c0.330322,0.990967 0.495483,1.981934 0.990967,2.9729c0.165161,0.330322 0.330322,0.495483 0.495483,0.825806c0,0.165161 0.165161,0.330322 0.165161,0.330322l0,0l0,0c0.990967,1.981934 2.9729,3.138062 4.954834,3.138062c0.660645,0 1.321289,-0.165161 1.981949,-0.495483c1.156128,-0.660645 2.147095,-1.651611 2.477417,-2.9729c0.330322,-1.321289 0.330322,-2.807739 -0.330322,-4.129028l0,0l0,0c0,-0.165161 -0.165161,-0.165161 -0.165161,-0.330322c-0.165161,-0.330322 -0.330322,-0.660645 -0.495483,-0.825806c-0.495483,-0.990982 -1.156128,-1.816788 -1.816788,-2.642593c-0.330322,-0.495483 -0.660645,-0.825806 -0.990967,-1.321289l0,-0.165161c-1.816772,-2.807739 -3.468384,-5.285156 -4.294189,-7.762573c-0.330322,-1.156128 0,-1.816772 0.165161,-2.642578c0,-0.165161 0.165161,-0.165161 0.165161,-0.330322l0,0l-0.825806,-1.981949c8.753555,-5.119995 16.185806,-12.387085 21.801285,-21.305801c2.972916,-4.624512 5.285172,-9.744507 6.936783,-14.864517l1.981934,0.330322c0.165161,0 0.165161,-0.165161 0.330322,-0.165161c0.660645,-0.330322 1.156128,-0.825806 2.147095,-0.825806l0.330322,0c2.642578,0.330322 5.450333,1.321289 8.588394,2.477417l0.165161,0c0.495483,0.165161 0.990967,0.495483 1.48645,0.660645c0.990967,0.495483 1.816772,0.825806 2.9729,1.156128c0.330322,0 0.660645,0.165161 0.990967,0.165161c0.165161,0 0.330322,0 0.495483,0.165176l0,0c0.495483,0.165161 0.825806,0.165161 1.321289,0.165161c2.477417,0 4.624527,-1.651627 5.285172,-3.798721c0,-1.981934 -1.816788,-4.624512 -4.789688,-5.450317l0,0zm-76.469666,-8.092911l-7.267105,3.468399l-7.26709,-3.468399l-1.81678,-7.762573l4.954849,-6.276131l8.092888,0l4.954849,6.276131l-1.651611,7.762573l0,0zm43.107086,-17.176765c1.321289,5.615479 1.651611,11.230965 1.156128,16.681282l-25.269669,-7.26709c-2.312256,-0.660645 -3.63356,-2.972908 -3.138062,-5.285164c0.165161,-0.660645 0.495468,-1.321289 0.990967,-1.81678l19.984512,-18.002563c2.807739,4.624504 4.954834,9.909668 6.276123,15.690315l0,0zm-14.203873,-25.600006l-21.636124,15.360001c-1.816772,1.156136 -4.294189,0.825813 -5.78064,-0.990967c-0.495483,-0.495483 -0.660645,-1.156128 -0.825806,-1.81678l-1.486465,-26.92128c11.396133,1.321297 21.8013,6.441284 29.729034,14.369026l0,0zm-47.896759,-13.543221c1.816765,-0.330322 3.468376,-0.660645 5.285149,-0.990959l-1.48645,26.425797c-0.165161,2.312263 -1.981934,4.294197 -4.459351,4.294197c-0.660652,0 -1.486458,-0.165169 -1.981941,-0.495483l-21.966446,-15.690331c6.771606,-6.771606 15.194839,-11.396126 24.609039,-13.543221l0,0zm-32.536781,23.452911l19.65419,17.507088c1.816765,1.48645 1.981941,4.294189 0.495491,6.11097c-0.495491,0.660652 -1.156136,1.156128 -1.981941,1.321289l-25.599998,7.432251c-0.990974,-11.230957 1.48645,-22.62709 7.432259,-32.371597l0,0zm-4.459358,44.758698l26.260643,-4.459351c2.147102,-0.165161 4.129036,1.321289 4.624527,3.468384c0.165154,0.990967 0.165154,1.816772 -0.165176,2.642578l0,0l-10.074829,24.278717c-9.249039,-5.945816 -16.681297,-15.029678 -20.645164,-25.930328l0,0zm60.283875,32.867096c-3.798706,0.825806 -7.597427,1.321289 -11.561295,1.321289c-5.78064,0 -11.396126,-0.990967 -16.68129,-2.642578l13.047745,-23.618057c1.321289,-1.48645 3.468384,-2.14711 5.285156,-1.156128c0.825806,0.495483 1.48645,1.156128 1.981934,1.816772l0,0l12.717422,22.957413c-1.48645,0.495483 -3.138062,0.825806 -4.789673,1.321289l0,0zm32.206451,-22.957413c-4.129028,6.606445 -9.579361,11.891617 -15.855484,16.020645l-10.405167,-24.939362c-0.495483,-1.981934 0.330322,-4.129028 2.312256,-5.119995c0.660645,-0.330322 1.48645,-0.495483 2.312256,-0.495483l26.425812,4.459351c-0.990967,3.633545 -2.642578,6.936783 -4.789673,10.074844l0,0z"/>
 </g>
</svg>